<svg width="64" height="64" viewBox="0 0 64 64" fill="none" xmlns="http://www.w3.org/2000/svg">
<path d="M9.82141 27.6607V25C9.82141 13.9543 18.7757 5 29.8214 5H35.1428C46.1885 5 55.1428 13.9543 55.1428 25V27.6607" stroke="#1D2020" stroke-width="2"/>
<path d="M10.5559 26.8313L6.98452 28.9146C5.75565 29.6315 5 30.9471 5 32.3697V40.0901C5 41.8679 6.17334 43.4323 7.88 43.9301L11.4514 44.9718C14.0114 45.7185 16.5714 43.7985 16.5714 41.1318V30.2864C16.5714 27.1993 13.2226 25.2758 10.5559 26.8313Z" stroke="#1D2020" stroke-width="2"/>
<path d="M54.4079 26.8293L57.9794 28.9127C59.2082 29.6295 59.9639 30.9451 59.9639 32.3678V40.0882C59.9639 41.8659 58.7905 43.4304 57.0839 43.9282L53.5124 44.9698C50.9524 45.7165 48.3924 43.7965 48.3924 41.1298V30.2845C48.3924 27.1973 51.7413 25.2738 54.4079 26.8293Z" stroke="#1D2020" stroke-width="2"/>
<path d="M54.1783 45.5C54.1783 47.2648 54.1783 49.8317 52.2497 51.2756C49.6783 53.2008 43.2497 54.3238 41.6426 54.1634" stroke="#1D2020" stroke-width="2"/>
<ellipse cx="38.7497" cy="53.6953" rx="3.85714" ry="3.375" fill="#1D2020"/>
<path d="M29.1077 59.002C28.1434 58.5074 26.2148 56.6877 26.2148 53.3646C26.2148 50.0415 28.1434 48.0239 29.1077 47.4305" stroke="#4197B4" stroke-width="2" stroke-linecap="round"/>
<path d="M32.0001 56.1094C31.518 55.8621 30.5537 54.9522 30.5537 53.2907C30.5537 51.6292 31.518 50.6204 32.0001 50.3237" stroke="#4197B4" stroke-width="2" stroke-linecap="round"/>
</svg>
