<svg width="65" height="64" viewBox="0 0 65 64" fill="none" xmlns="http://www.w3.org/2000/svg">
<circle cx="32.509" cy="26.1767" r="4.23529" fill="#4197B4"/>
<path d="M52.0812 25.8739C52.0812 28.4998 50.8765 31.8298 48.9385 35.4405C47.0165 39.0214 44.4419 42.755 41.8491 46.1536C39.2592 49.5485 36.6669 52.5888 34.7208 54.7814C33.7483 55.8772 32.9383 56.76 32.3722 57.3681C32.3147 57.4299 32.2596 57.4889 32.2072 57.5449C32.1548 57.4889 32.0997 57.4299 32.0422 57.3681C31.4761 56.76 30.6661 55.8772 29.6936 54.7814C27.7475 52.5888 25.1552 49.5485 22.5653 46.1536C19.9725 42.755 17.3979 39.0214 15.4759 35.4405C13.5379 31.8298 12.3333 28.4998 12.3333 25.8739C12.3333 14.8979 21.2311 6 32.2072 6C43.1833 6 52.0812 14.8979 52.0812 25.8739Z" stroke="#1D2020" stroke-width="2"/>
</svg>
