<svg width="64" height="29" viewBox="0 0 64 29" fill="none" xmlns="http://www.w3.org/2000/svg">
<g clip-path="url(#clip0_690_14394)">
<path d="M58.9738 10.2591H48.2613L40.3553 15.5786H28.2304L22.3055 11.7265L10.3823 3.93061C9.49269 3.37135 8.42006 3.18112 7.39242 3.40035C6.36477 3.61958 5.46315 4.23098 4.87926 5.10459L3.04492 7.81941L18.3433 17.8165L25.2771 22.274L26.0108 22.7876H42.1897L49.6738 17.4497H62.9727V14.2212C62.9751 13.6906 62.8724 13.1648 62.6704 12.674C62.4685 12.1833 62.1713 11.7375 61.7961 11.3623C61.4209 10.9871 60.9751 10.6899 60.4844 10.4879C59.9936 10.286 59.4678 10.1833 58.9371 10.1857" fill="white"/>
<path d="M26.1759 22.2743H42.0429L49.3802 17.0648C49.4685 16.9935 49.5786 16.9546 49.6921 16.9547H62.5324V14.2582C62.5324 13.329 62.1633 12.4379 61.5062 11.7808C60.8492 11.1238 59.958 10.7547 59.0288 10.7547H48.4264L40.5938 15.9825C40.4988 16.0161 40.3952 16.0161 40.3003 15.9825H28.2303C28.1341 16.0074 28.0331 16.0074 27.9368 15.9825L10.0887 4.33449C9.30573 3.83308 8.35622 3.66163 7.4473 3.85756C6.99711 3.94465 6.56954 4.12304 6.19096 4.38174C5.81238 4.64044 5.49081 4.97396 5.24609 5.36172L3.76028 7.59961L25.5705 21.8157C25.7433 21.9587 25.9274 22.0875 26.1208 22.2009L26.1759 22.2743ZM42.1713 23.2832H26.0108C25.9149 23.3107 25.8132 23.3107 25.7173 23.2832L24.9652 22.7512L2.73305 8.25997C2.61178 8.17871 2.52639 8.05392 2.49459 7.91144C2.44158 7.78215 2.44158 7.63719 2.49459 7.50789L4.32892 4.79308C4.65766 4.28833 5.08262 3.85329 5.57952 3.51281C6.07642 3.17234 6.63554 2.93309 7.22493 2.80874C7.81431 2.68439 8.42242 2.67737 9.01451 2.78809C9.60661 2.89881 10.1711 3.12509 10.6757 3.45401L28.3954 15.0103H40.1352L47.9494 9.76413C48.0517 9.73772 48.159 9.73772 48.2613 9.76413H58.9738C60.1901 9.76413 61.3565 10.2473 62.2165 11.1073C63.0765 11.9673 63.5597 13.1337 63.5597 14.35V17.5784C63.5621 17.6498 63.5502 17.7209 63.5245 17.7876C63.4989 17.8543 63.4601 17.9151 63.4105 17.9665C63.3608 18.0178 63.3013 18.0587 63.2356 18.0865C63.1698 18.1144 63.0991 18.1287 63.0277 18.1287H49.8755L42.5382 23.3566C42.4359 23.383 42.3286 23.383 42.2263 23.3566" fill="#1D2020"/>
<path d="M21.8469 13.6525L9.00659 5.21456L10.2723 3.38022C10.9138 2.3972 11.9186 1.7083 13.0668 1.46423C14.2149 1.22015 15.413 1.44078 16.399 2.07785L21.902 5.74652C22.8832 6.39436 23.5688 7.40368 23.8093 8.55465C24.0498 9.70561 23.8258 10.905 23.186 11.8915L21.8469 13.6525Z" fill="white"/>
<path d="M9.667 5.06844L21.7002 12.9194L22.6724 11.4152C23.2284 10.55 23.4208 9.50048 23.2079 8.49432C22.995 7.48815 22.3939 6.60651 21.5352 6.04064L16.0321 2.37196C15.6052 2.09189 15.1269 1.89907 14.6251 1.80464C14.1232 1.7102 13.6077 1.71601 13.1081 1.82173C12.6085 1.92744 12.1348 2.13099 11.7142 2.42061C11.2936 2.71023 10.9345 3.08021 10.6575 3.50924L9.667 5.06844ZM21.847 14.2401C21.751 14.2667 21.6495 14.2667 21.5535 14.2401L8.71314 5.80216C8.59273 5.7233 8.50802 5.6004 8.47715 5.45981C8.44629 5.31922 8.47175 5.17214 8.54805 5.05009L9.81374 3.12403C10.5338 2.01975 11.663 1.24671 12.953 0.974953C14.243 0.703194 15.5881 0.954965 16.6925 1.67491L22.1955 5.34358C23.2959 6.06688 24.0658 7.19587 24.3372 8.48442C24.6087 9.77297 24.3597 11.1166 23.6446 12.2223L22.379 14.0567C22.3402 14.1181 22.2893 14.171 22.2294 14.212C22.1694 14.253 22.1017 14.2813 22.0304 14.2952H21.9204" fill="#1D2020"/>
<path d="M63.3764 28.5475H1.00899C0.929595 28.5622 0.847945 28.5592 0.769826 28.5388C0.691707 28.5184 0.619031 28.481 0.556964 28.4294C0.494897 28.3777 0.444957 28.3131 0.410683 28.24C0.376408 28.1668 0.358643 28.0871 0.358643 28.0064C0.358643 27.9256 0.376408 27.8459 0.410683 27.7727C0.444957 27.6996 0.494897 27.635 0.556964 27.5833C0.619031 27.5317 0.691707 27.4943 0.769826 27.4739C0.847945 27.4535 0.929595 27.4505 1.00899 27.4652H63.3764C63.4558 27.4505 63.5375 27.4535 63.6156 27.4739C63.6937 27.4943 63.7664 27.5317 63.8285 27.5833C63.8905 27.635 63.9405 27.6996 63.9747 27.7727C64.009 27.8459 64.0268 27.9256 64.0268 28.0064C64.0268 28.0871 64.009 28.1668 63.9747 28.24C63.9405 28.3131 63.8905 28.3777 63.8285 28.4294C63.7664 28.481 63.6937 28.5184 63.6156 28.5388C63.5375 28.5592 63.4558 28.5622 63.3764 28.5475Z" fill="#1D2020"/>
<path d="M44.1159 26.1449H24.4151C24.3202 26.1785 24.2166 26.1785 24.1216 26.1449L0.275274 10.6265C0.157868 10.5448 0.0768879 10.4205 0.0494948 10.2802C0.0221016 10.1398 0.0504452 9.99422 0.128524 9.87437C0.203959 9.75521 0.323628 9.67089 0.461217 9.63993C0.598806 9.60897 0.743058 9.63392 0.862261 9.70929L24.6169 25.1544H44.0242L51.068 20.2017C51.1691 20.1668 51.2789 20.1668 51.3799 20.2017H63.4682C63.6092 20.2017 63.7445 20.2577 63.8443 20.3575C63.9441 20.4573 64.0001 20.5926 64.0001 20.7337C64.0001 20.8747 63.9441 21.01 63.8443 21.1098C63.7445 21.2096 63.6092 21.2656 63.4682 21.2656H51.4716L44.4277 26.2367C44.3255 26.2631 44.2182 26.2631 44.1159 26.2367" fill="#4197B4"/>
</g>
<defs>
<clipPath id="clip0_690_14394">
<rect width="64" height="27.8085" fill="white" transform="translate(0 0.739258)"/>
</clipPath>
</defs>
</svg>
