<svg width="64" height="64" viewBox="0 0 64 64" fill="none" xmlns="http://www.w3.org/2000/svg">
<circle cx="32" cy="31.9999" r="23.2069" stroke="#1D2020" stroke-width="2"/>
<circle cx="32.0003" cy="31.9993" r="12.0345" stroke="#1D2020" stroke-width="2"/>
<path d="M28.2759 7.89267C25.021 4.39859 15.0126 3.01599 8.94231 9.89119C2.23737 17.4852 5.53328 25.2011 8.26735 28.2759" stroke="#1D2020" stroke-width="2" stroke-linecap="round"/>
<path d="M36.6555 55.4091C39.65 58.6236 48.8578 59.8956 54.4424 53.5704C60.611 46.5839 57.5787 39.4853 55.0634 36.6565" stroke="#1D2020" stroke-width="2" stroke-linecap="round"/>
<path d="M35.7241 7.89267C38.979 4.39859 48.9874 3.01599 55.0577 9.89119C61.7626 17.4852 58.4667 25.2011 55.7327 28.2759" stroke="#1D2020" stroke-width="2" stroke-linecap="round"/>
<path d="M28.2759 56.1073C25.021 59.6014 15.0126 60.984 8.94231 54.1088C2.23737 46.5148 5.53328 38.7989 8.26735 35.7241" stroke="#1D2020" stroke-width="2" stroke-linecap="round"/>
<path d="M32 45.0352L32 55.2765" stroke="#1D2020" stroke-width="2" stroke-linecap="round"/>
<path d="M32 9.6543L32 19.8957" stroke="#1D2020" stroke-width="2" stroke-linecap="round"/>
<path d="M44.5693 32.4648L54.8107 32.4648" stroke="#1D2020" stroke-width="2" stroke-linecap="round"/>
<path d="M9.18945 32.4648L19.4308 32.4648" stroke="#1D2020" stroke-width="2" stroke-linecap="round"/>
</svg>
