<svg width="64" height="20" viewBox="0 0 64 20" fill="none" xmlns="http://www.w3.org/2000/svg">
<g opacity="0.5" clip-path="url(#clip0_690_14405)">
<path d="M63.4011 19.4211H0.521582C0.38325 19.4211 0.250586 19.3661 0.15277 19.2683C0.0549547 19.1705 0 19.0378 0 18.8995C0 18.7612 0.0549547 18.6285 0.15277 18.5307C0.250586 18.4329 0.38325 18.3779 0.521582 18.3779H63.4011C63.5395 18.3779 63.6721 18.4329 63.77 18.5307C63.8678 18.6285 63.9227 18.7612 63.9227 18.8995C63.9227 19.0378 63.8678 19.1705 63.77 19.2683C63.6721 19.3661 63.5395 19.4211 63.4011 19.4211Z" fill="#4197B4"/>
<path d="M63.4785 16.8134H0.618262C0.478181 16.8084 0.345517 16.7493 0.248219 16.6484C0.150922 16.5475 0.0965904 16.4127 0.0966798 16.2725C0.0966798 16.1342 0.151635 16.0015 0.24945 15.9037C0.347266 15.8059 0.47993 15.751 0.618262 15.751H63.4785C63.6168 15.751 63.7495 15.8059 63.8473 15.9037C63.9451 16.0015 64.0001 16.1342 64.0001 16.2725C64.0002 16.4127 63.9459 16.5475 63.8486 16.6484C63.7513 16.7493 63.6186 16.8084 63.4785 16.8134Z" fill="#4197B4"/>
<path d="M63.1115 13.3363H1.00464V11.559C1.00463 9.97926 1.63087 8.46389 2.74614 7.345C3.86141 6.22611 5.37474 5.59496 6.95453 5.58984H57.1809C58.7625 5.59494 60.2778 6.22548 61.3961 7.34382C62.5145 8.46217 63.145 9.97748 63.1501 11.559L63.1115 13.3363Z" fill="white"/>
<path d="M1.5261 12.8148H62.5705V11.5591C62.5705 10.1177 61.9992 8.73497 60.9817 7.71389C59.9643 6.69282 58.5836 6.11659 57.1422 6.11148H6.91578C5.47433 6.11659 4.09365 6.69282 3.0762 7.71389C2.05875 8.73497 1.48746 10.1177 1.48747 11.5591L1.5261 12.8148ZM63.1114 13.858H1.00452C0.86435 13.858 0.729615 13.8037 0.628715 13.7064C0.527814 13.6091 0.468629 13.4765 0.463623 13.3364V11.5591C0.468719 9.83923 1.1542 8.19125 2.37036 6.97509C3.58652 5.75893 5.23451 5.07346 6.95441 5.06836H57.1808C58.9007 5.07346 60.5487 5.75893 61.7648 6.97509C62.981 8.19125 63.6665 9.83923 63.6716 11.5591V13.3364C63.6716 13.4747 63.6166 13.6074 63.5188 13.7052C63.421 13.803 63.2883 13.858 63.15 13.858" fill="#1D2020"/>
<path d="M20.4382 8.23624H4.01807V5.37718C4.01807 4.23466 4.47192 3.13894 5.27981 2.33106C6.08769 1.52317 7.18342 1.06934 8.32594 1.06934H16.0531C17.1956 1.06934 18.2913 1.52317 19.0992 2.33106C19.9071 3.13894 20.361 4.23466 20.361 5.37718L20.4382 8.23624Z" fill="white"/>
<path d="M4.53974 7.71481H19.994V5.37731C19.994 4.35263 19.587 3.36991 18.8624 2.64535C18.1378 1.92079 17.1551 1.51374 16.1304 1.51374H8.40331C7.37863 1.51374 6.39592 1.92079 5.67136 2.64535C4.9468 3.36991 4.53974 4.35263 4.53974 5.37731V7.71481ZM20.4383 8.75793H4.01816C3.87983 8.75793 3.74716 8.703 3.64934 8.60518C3.55153 8.50737 3.49658 8.3747 3.49658 8.23637V5.37731C3.49658 4.09646 4.00539 2.86808 4.91109 1.96238C5.81679 1.05668 7.04519 0.547852 8.32604 0.547852H16.0532C17.334 0.547852 18.5624 1.05668 19.4681 1.96238C20.3738 2.86808 20.8826 4.09646 20.8826 5.37731V8.23637C20.8826 8.3747 20.8277 8.50737 20.7299 8.60518C20.6321 8.703 20.4994 8.75793 20.3611 8.75793" fill="#1D2020"/>
</g>
<defs>
<clipPath id="clip0_690_14405">
<rect width="64" height="18.8928" fill="white" transform="translate(0 0.547852)"/>
</clipPath>
</defs>
</svg>
