<svg width="64" height="20" viewBox="0 0 64 20" fill="none" xmlns="http://www.w3.org/2000/svg">
<g clip-path="url(#clip0_5226_40656)">
<path d="M63.4011 19.2361H0.521582C0.38325 19.2361 0.250586 19.1811 0.15277 19.0832C0.0549547 18.9854 0 18.8528 0 18.7144C0 18.5761 0.0549547 18.4434 0.15277 18.3456C0.250586 18.2478 0.38325 18.1929 0.521582 18.1929H63.4011C63.5395 18.1929 63.6721 18.2478 63.77 18.3456C63.8678 18.4434 63.9227 18.5761 63.9227 18.7144C63.9227 18.8528 63.8678 18.9854 63.77 19.0832C63.6721 19.1811 63.5395 19.2361 63.4011 19.2361Z" fill="#4197B4"/>
<path d="M63.4785 16.6279H0.618262C0.478181 16.6229 0.345517 16.5637 0.248219 16.4628C0.150922 16.3619 0.0965904 16.2272 0.0966798 16.087C0.0966798 15.9487 0.151635 15.816 0.24945 15.7182C0.347266 15.6204 0.47993 15.5654 0.618262 15.5654H63.4785C63.6168 15.5654 63.7495 15.6204 63.8473 15.7182C63.9451 15.816 64.0001 15.9487 64.0001 16.087C64.0002 16.2272 63.9459 16.3619 63.8486 16.4628C63.7513 16.5637 63.6186 16.6229 63.4785 16.6279Z" fill="#4197B4"/>
<path d="M1.52635 12.6292H62.5707V11.3736C62.5707 9.93212 61.9994 8.54942 60.982 7.52834C59.9645 6.50727 58.5839 5.93104 57.1424 5.92593H6.91603C5.47457 5.93104 4.0939 6.50727 3.07644 7.52834C2.05899 8.54942 1.4877 9.93212 1.48771 11.3736L1.52635 12.6292ZM63.1116 13.6724H1.00476C0.864594 13.6725 0.72986 13.6182 0.628959 13.5209C0.528058 13.4236 0.468873 13.2909 0.463867 13.1508V11.3736C0.468963 9.65368 1.15445 8.0057 2.3706 6.78954C3.58676 5.57338 5.23476 4.88791 6.95465 4.88281H57.181C58.9009 4.88791 60.5489 5.57338 61.7651 6.78954C62.9812 8.0057 63.6667 9.65368 63.6718 11.3736V13.1508C63.6718 13.2892 63.6169 13.4218 63.5191 13.5197C63.4212 13.6175 63.2886 13.6724 63.1503 13.6724" fill="#1D2020"/>
<path d="M4.53974 7.52926H19.994V5.19176C19.994 4.16708 19.587 3.18437 18.8624 2.45981C18.1378 1.73525 17.1551 1.3282 16.1304 1.3282H8.40331C7.37863 1.3282 6.39592 1.73525 5.67136 2.45981C4.9468 3.18437 4.53974 4.16708 4.53974 5.19176V7.52926ZM20.4383 8.57239H4.01816C3.87983 8.57239 3.74716 8.51745 3.64934 8.41964C3.55153 8.32182 3.49658 8.18916 3.49658 8.05083V5.19176C3.49658 3.91091 4.00539 2.68253 4.91109 1.77683C5.81679 0.871132 7.04519 0.362305 8.32604 0.362305H16.0532C17.334 0.362305 18.5624 0.871132 19.4681 1.77683C20.3738 2.68253 20.8826 3.91091 20.8826 5.19176V8.05083C20.8826 8.18916 20.8277 8.32182 20.7299 8.41964C20.6321 8.51745 20.4994 8.57239 20.3611 8.57239" fill="#1D2020"/>
</g>
<defs>
<clipPath id="clip0_5226_40656">
<rect width="64" height="18.8928" fill="white" transform="translate(0 0.362305)"/>
</clipPath>
</defs>
</svg>
