<svg width="65" height="28" viewBox="0 0 65 28" fill="none" xmlns="http://www.w3.org/2000/svg">
<g clip-path="url(#clip0_4369_32952)">
<path d="M59.4738 9.5203H48.7613L40.8553 14.8399H28.7304L22.8055 10.9878L10.8823 3.19185C9.99269 2.63258 8.92006 2.44235 7.89242 2.66158C6.86477 2.88081 5.96315 3.49221 5.37926 4.36582L3.54492 7.08064L18.8433 17.0778L25.7771 21.5352L26.5108 22.0488H42.6897L50.1738 16.7109H63.4727V13.4825C63.4751 12.9518 63.3724 12.426 63.1704 11.9353C62.9685 11.4446 62.6713 10.9987 62.2961 10.6235C61.9209 10.2483 61.4751 9.95112 60.9844 9.74917C60.4936 9.54723 59.9678 9.44451 59.4371 9.44694" fill="white"/>
<path d="M26.6761 21.535H42.5431L49.8805 16.3255C49.9687 16.2542 50.0788 16.2153 50.1923 16.2155H63.0327V13.519C63.0327 12.5898 62.6635 11.6986 62.0065 11.0416C61.3494 10.3845 60.4583 10.0154 59.5291 10.0154H48.9266L41.094 15.2433C40.9991 15.2768 40.8955 15.2768 40.8005 15.2433H28.7306C28.6343 15.2681 28.5333 15.2681 28.4371 15.2433L10.589 3.59524C9.80598 3.09382 8.85646 2.92237 7.94754 3.1183C7.49736 3.20539 7.06979 3.38379 6.69121 3.64248C6.31263 3.90118 5.99106 4.2347 5.74634 4.62246L4.26052 6.86035L26.0708 21.0765C26.2436 21.2194 26.4276 21.3482 26.6211 21.4617L26.6761 21.535ZM42.6715 22.5439H26.511C26.4151 22.5715 26.3134 22.5715 26.2175 22.5439L25.4655 22.012L3.2333 7.52072C3.11202 7.43946 3.02664 7.31466 2.99483 7.17219C2.94183 7.04289 2.94183 6.89793 2.99483 6.76863L4.82917 4.05382C5.15791 3.54907 5.58286 3.11403 6.07976 2.77356C6.57667 2.43308 7.13578 2.19384 7.72517 2.06949C8.31456 1.94514 8.92266 1.93811 9.51476 2.04883C10.1069 2.15955 10.6713 2.38583 11.176 2.71475L28.8957 14.2711H40.6354L48.4497 9.02487C48.552 8.99847 48.6593 8.99847 48.7615 9.02487H59.4741C60.6903 9.02487 61.8567 9.50802 62.7167 10.368C63.5767 11.228 64.0599 12.3945 64.0599 13.6107V16.8391C64.0624 16.9105 64.0504 16.9817 64.0248 17.0484C63.9992 17.115 63.9604 17.1759 63.9107 17.2272C63.8611 17.2786 63.8016 17.3194 63.7358 17.3473C63.6701 17.3751 63.5994 17.3895 63.5279 17.3894H50.3757L43.0384 22.6173C42.9361 22.6437 42.8288 22.6437 42.7266 22.6173" fill="#646464"/>
<path d="M22.3462 12.9137L9.50586 4.47579L10.7715 2.64145C11.4131 1.65843 12.4178 0.96953 13.566 0.725456C14.7142 0.481382 15.9123 0.70201 16.8982 1.33908L22.4012 5.00775C23.3825 5.65559 24.068 6.66491 24.3085 7.81588C24.549 8.96684 24.325 10.1662 23.6853 11.1528L22.3462 12.9137Z" fill="white"/>
<path d="M10.1675 4.32894L22.2007 12.1799L23.1729 10.6757C23.7289 9.81051 23.9213 8.76098 23.7083 7.75481C23.4954 6.74865 22.8944 5.86701 22.0356 5.30114L16.5326 1.63246C16.1056 1.35239 15.6274 1.15957 15.1256 1.06514C14.6237 0.970703 14.1082 0.976509 13.6086 1.08223C13.109 1.18794 12.6352 1.39148 12.2147 1.68111C11.7941 1.97073 11.435 2.34071 11.158 2.76974L10.1675 4.32894ZM22.3475 13.5006C22.2515 13.5272 22.15 13.5272 22.054 13.5006L9.21363 5.06266C9.09322 4.9838 9.0085 4.8609 8.97764 4.72031C8.94678 4.57972 8.97224 4.43264 9.04854 4.31059L10.3142 2.38453C11.0343 1.28024 12.1635 0.50721 13.4535 0.235451C14.7435 -0.0363081 16.0886 0.215463 17.193 0.935405L22.696 4.60408C23.7964 5.32738 24.5663 6.45637 24.8377 7.74492C25.1092 9.03347 24.8602 10.3771 24.1451 11.4828L22.8794 13.3172C22.8407 13.3786 22.7898 13.4315 22.7299 13.4725C22.6699 13.5135 22.6022 13.5418 22.5309 13.5556H22.4209" fill="#646464"/>
<path d="M63.8772 27.8085H1.50972C1.43033 27.8231 1.34868 27.8202 1.27056 27.7998C1.19244 27.7793 1.11976 27.742 1.0577 27.6903C0.99563 27.6387 0.94569 27.574 0.911415 27.5009C0.87714 27.4278 0.859375 27.3481 0.859375 27.2673C0.859375 27.1866 0.87714 27.1068 0.911415 27.0337C0.94569 26.9606 0.99563 26.896 1.0577 26.8443C1.11976 26.7927 1.19244 26.7553 1.27056 26.7349C1.34868 26.7145 1.43033 26.7115 1.50972 26.7262H63.8772C63.9566 26.7115 64.0382 26.7145 64.1163 26.7349C64.1944 26.7553 64.2671 26.7927 64.3292 26.8443C64.3913 26.896 64.4412 26.9606 64.4755 27.0337C64.5098 27.1068 64.5275 27.1866 64.5275 27.2673C64.5275 27.3481 64.5098 27.4278 64.4755 27.5009C64.4412 27.574 64.3913 27.6387 64.3292 27.6903C64.2671 27.742 64.1944 27.7793 64.1163 27.7998C64.0382 27.8202 63.9566 27.8231 63.8772 27.8085Z" fill="#646464"/>
<path d="M44.6157 25.4057H24.9149C24.8199 25.4393 24.7164 25.4393 24.6214 25.4057L0.77503 9.8872C0.657624 9.80549 0.576644 9.68128 0.549251 9.54089C0.521858 9.4005 0.550201 9.25496 0.62828 9.13511C0.703715 9.01595 0.823384 8.93163 0.960973 8.90067C1.09856 8.86971 1.24281 8.89466 1.36202 8.97003L25.1167 24.4151H44.5239L51.5678 19.4624C51.6688 19.4275 51.7786 19.4275 51.8796 19.4624H63.9679C64.109 19.4624 64.2443 19.5185 64.3441 19.6182C64.4438 19.718 64.4999 19.8533 64.4999 19.9944C64.4999 20.1355 64.4438 20.2708 64.3441 20.3705C64.2443 20.4703 64.109 20.5263 63.9679 20.5263H51.9714L44.9275 25.4974C44.8252 25.5238 44.7179 25.5238 44.6157 25.4974" fill="#4197B4"/>
</g>
<defs>
<clipPath id="clip0_4369_32952">
<rect width="64" height="27.8085" fill="white" transform="translate(0.5)"/>
</clipPath>
</defs>
</svg>
