<svg width="63" height="28" viewBox="0 0 63 28" fill="none" xmlns="http://www.w3.org/2000/svg">
<path d="M1.27734 19.3359H62.1365" stroke="#4197B4" stroke-width="1.06034" stroke-linecap="round" stroke-linejoin="round"/>
<path d="M1.27734 23.0015H62.1365" stroke="#4197B4" stroke-width="1.06034" stroke-linecap="round" stroke-linejoin="round"/>
<path d="M8.04653 5.17676H55.5427C59.027 5.17676 61.8566 8.00745 61.8566 11.4931V12.6725H1.73535V11.4931C1.73535 8.00745 4.56498 5.17676 8.0493 5.17676H8.04653Z" fill="#F5F8FA" stroke="#1D2020" stroke-width="1.06034" stroke-linecap="round" stroke-linejoin="round"/>
<path d="M9.22036 0.789551H15.9976C18.5137 0.789551 20.5583 2.83486 20.5583 5.35195V7.73584H4.65967V5.35195C4.65967 2.83486 6.70144 0.789551 9.22036 0.789551Z" fill="#F5F8FA" stroke="#1D2020" stroke-width="1.06034" stroke-linecap="round" stroke-linejoin="round"/>
<path d="M62.2225 26.0883V15.5981H1.36328V26.8293" stroke="#1D2020" stroke-width="1.06034" stroke-linecap="round" stroke-linejoin="round"/>
<path d="M31.9272 17.5674V25.6321" stroke="#1D2020" stroke-width="0.530172" stroke-linecap="round" stroke-linejoin="round"/>
<path d="M31.0977 17.8121L31.9271 16.3745L32.7566 17.8121H31.0977Z" fill="#1D2020"/>
<path d="M31.0977 25.3887L31.9271 26.829L32.7566 25.3887H31.0977Z" fill="#1D2020"/>
</svg>
