<svg width="42" height="54" viewBox="0 0 42 54" fill="none" xmlns="http://www.w3.org/2000/svg">
<circle cx="21.1757" cy="21.1767" r="4.23529" fill="#4197B4"/>
<path d="M40.7479 20.8739C40.7479 23.4998 39.5433 26.8298 37.6052 30.4405C35.6832 34.0214 33.1086 37.755 30.5159 41.1536C27.926 44.5485 25.3336 47.5888 23.3876 49.7814C22.415 50.8772 21.605 51.76 21.039 52.3681C20.9814 52.4299 20.9264 52.4889 20.874 52.5449C20.8215 52.4889 20.7665 52.4299 20.7089 52.3681C20.1428 51.76 19.3329 50.8772 18.3603 49.7814C16.4143 47.5888 13.8219 44.5485 11.232 41.1536C8.63929 37.755 6.06468 34.0214 4.14266 30.4405C2.20464 26.8298 1 23.4998 1 20.8739C1 9.89787 9.89787 1 20.8739 1C31.85 1 40.7479 9.89787 40.7479 20.8739Z" stroke="#1D2020" stroke-width="2"/>
</svg>
