<svg width="19" height="19" viewBox="0 0 19 19" fill="none" xmlns="http://www.w3.org/2000/svg">
<g clip-path="url(#clip0_2164_11544)">
<path d="M8 4.81348V6.31348H4.25V14.5635H12.5V10.8135H14V15.3135C14 15.5124 13.921 15.7032 13.7803 15.8438C13.6397 15.9845 13.4489 16.0635 13.25 16.0635H3.5C3.30109 16.0635 3.11032 15.9845 2.96967 15.8438C2.82902 15.7032 2.75 15.5124 2.75 15.3135V5.56348C2.75 5.36456 2.82902 5.1738 2.96967 5.03315C3.11032 4.89249 3.30109 4.81348 3.5 4.81348H8ZM16.25 2.56348V8.56348H14.75V5.12323L8.90525 10.9687L7.84475 9.90823L13.6887 4.06348H10.25V2.56348H16.25Z" fill="#4197B4"/>
</g>
<defs>
<clipPath id="clip0_2164_11544">
<rect width="18" height="18" fill="white" transform="translate(0.5 0.313477)"/>
</clipPath>
</defs>
</svg>
