<svg width="136" height="71" viewBox="0 0 136 71" fill="none" xmlns="http://www.w3.org/2000/svg">
<g clip-path="url(#clip0_2099_794)">
<path d="M5.99712 1.22292C5.3413 0.471976 3.46831 -0.840793 1.5064 0.750105C0.200307 1.87375 0.105824 2.99739 0.0113405 3.37564C0.0113405 3.74833 -0.177626 4.87198 1.03954 6.27931C2.2567 7.68108 13.8559 20.7865 13.8559 20.7865C13.8559 20.7865 24.7992 33.052 27.228 35.5774C29.6568 38.1028 34.9923 42.8755 43.2234 43.1592C48.9258 43.3483 48.9258 43.2538 49.5816 43.2538H63.4261C63.7985 43.2538 67.0721 43.3483 70.5346 42.0356C73.9971 40.7228 77.4541 38.1028 79.7939 36.0447C82.1338 33.8919 88.214 27.5284 88.5864 27.0611C91.4876 24.0684 92.8882 22.9448 95.6004 23.3175C98.4071 23.7847 102.242 24.4411 108.973 25.8429C109.161 25.9375 124.407 29.2138 124.59 29.3084C124.779 29.3084 127.302 29.9648 128.703 27.5284C129.92 25.1865 128.141 22.7557 126.646 22.472C122.345 21.5375 117.948 20.5084 113.647 19.5683C113.274 19.4737 97.9347 16.1028 94.3777 16.1028C93.255 16.1028 90.6372 16.0083 87.6416 18.4447C84.4625 20.9701 81.6558 24.2464 81.1889 24.6247C80.7221 25.092 77.1651 28.9301 76.1369 29.8646C72.7688 33.0464 69.0284 36.1392 63.6985 36.1392H46.6748C45.9245 36.1392 41.1559 36.1392 38.5382 35.1102C35.637 33.9865 33.7696 32.3956 31.5242 29.8702C29.2844 27.4282 5.99712 1.22292 5.99712 1.22292Z" fill="white"/>
<path d="M8.5202 60.0093C8.42572 57.6675 7.30304 55.7039 5.24664 55.7039C3.37921 55.7039 1.97309 57.3893 1.78412 60.0093H8.5202ZM0.105655 60.6601C0.105655 56.822 2.35102 54.1074 5.24664 54.1074C8.42572 54.1074 10.2987 56.822 10.2987 60.5656V61.3165H1.8786C2.06757 64.1256 3.75159 65.622 5.7135 65.622C7.11407 65.622 8.05335 65.0601 8.98706 64.2202L10.0153 65.3438C8.89258 66.4675 7.58093 67.2184 5.7135 67.2184C2.62891 67.2184 0.100098 64.693 0.100098 60.7603V60.6657L0.105655 60.6601Z" fill="white"/>
<path d="M14.228 54.3902H16.0065V57.1993C16.7568 55.4193 18.2519 54.2066 20.3083 54.2956V56.1702H20.2138C17.874 56.1702 16.0065 57.8557 16.0065 61.0375V67.0284H14.228V54.3902Z" fill="white"/>
<path d="M31.9019 60.0096C31.9019 57.2951 30.0289 55.6096 28.1615 55.6096C26.1996 55.6096 24.61 57.2005 24.61 60.0096V60.1042C24.61 62.8187 26.1996 64.5042 28.1615 64.5042C30.1234 64.5042 31.9019 62.8187 31.9019 60.0096ZM24.0431 67.7805C25.2603 68.5315 26.6609 68.9987 28.067 68.9987C30.4069 68.9987 31.9019 67.7805 31.9019 65.2551V63.3805C31.0571 64.7823 29.751 66.0005 27.7891 66.0005C25.2659 66.0005 22.8315 63.8478 22.8315 60.1042V60.0096C22.8315 56.266 25.2659 54.1133 27.7891 54.1133C29.751 54.1133 31.0627 55.2369 31.9019 56.5497V54.3024H33.6804V65.1606C33.6804 66.846 33.2136 68.1532 32.2798 68.9987C31.3461 69.9333 29.94 70.4005 28.1671 70.4005C26.483 70.4005 24.8935 69.9333 23.3984 69.0877L24.0543 67.775L24.0431 67.7805Z" fill="white"/>
<path d="M47.0526 60.5656C47.0526 57.7565 45.3685 55.6983 43.2177 55.6983C41.0668 55.6983 39.4772 57.7565 39.4772 60.5656V60.6601C39.4772 63.4692 41.1613 65.5274 43.3121 65.5274C45.463 65.5274 47.147 63.3747 47.147 60.6601L47.0526 60.5656ZM37.6987 60.5656C37.6987 56.9165 40.0386 54.1074 43.3121 54.1074C46.5857 54.1074 48.8311 56.9165 48.8311 60.5656V60.6601C48.8311 64.3092 46.4912 67.1183 43.2177 67.1183C39.9441 67.1183 37.6987 64.3092 37.6987 60.6601V60.5656Z" fill="white"/>
<path d="M52.9495 54.3911H54.6335V56.3547C55.2894 55.1365 56.3176 54.1074 58.185 54.1074C59.869 54.1074 61.0862 55.0419 61.6475 56.3547C62.3978 55.1365 63.6094 54.1074 65.4824 54.1074C67.9167 54.1074 69.5063 55.7929 69.5063 58.6965V66.8402H67.7278V59.0692C67.7278 56.822 66.6996 55.6038 65.0156 55.6038C63.426 55.6038 62.0254 56.9165 62.0254 59.1582V66.8346H60.2469V59.0637C60.2469 56.8164 59.2187 55.5982 57.5347 55.5982C55.8507 55.5982 54.5446 57.0945 54.5446 59.1527V66.7345H52.8606V54.38H52.9551L52.9495 54.3911Z" fill="white"/>
<path d="M82.784 60.5656C82.784 57.7565 81.1 55.6983 78.9491 55.6983C76.7982 55.6983 75.2087 57.7565 75.2087 60.5656V60.6601C75.2087 63.4692 76.8927 65.5274 79.0436 65.5274C81.1945 65.5274 82.8785 63.3747 82.8785 60.6601V60.5656H82.784ZM73.4302 60.5656C73.4302 56.9165 75.77 54.1074 79.0436 54.1074C82.3171 54.1074 84.5625 56.9165 84.5625 60.5656V60.6601C84.5625 64.3092 82.2227 67.1183 78.9491 67.1183C75.6755 67.1183 73.4302 64.3092 73.4302 60.6601V60.5656Z" fill="white"/>
<path d="M89.142 64.0304V55.9813H87.647V54.485H89.142V50.8359H90.9205V54.485H94.1941V55.9813H90.9205V63.7522C90.9205 65.065 91.6708 65.5323 92.699 65.5323C93.1659 65.5323 93.6328 65.4377 94.1941 65.1596V66.6559C93.6328 66.934 92.9769 67.1232 92.3211 67.1232C90.5426 67.1232 89.142 66.2777 89.142 64.0359" fill="white"/>
<path d="M98.3069 66.9346H100.085V54.391H98.3069V66.9346ZM98.2124 51.771H100.174V49.7129H98.2124V51.771Z" fill="white"/>
<path d="M113.647 60.5656C113.647 57.7565 111.963 55.6983 109.812 55.6983C107.661 55.6983 106.071 57.7565 106.071 60.5656V60.6601C106.071 63.4692 107.755 65.5274 109.906 65.5274C112.057 65.5274 113.741 63.3747 113.741 60.6601V60.5656H113.647ZM104.293 60.5656C104.293 56.9165 106.633 54.1074 109.906 54.1074C113.18 54.1074 115.425 56.9165 115.425 60.5656V60.6601C115.425 64.3092 113.085 67.1183 109.812 67.1183C106.538 67.1183 104.293 64.3092 104.293 60.6601V60.5656Z" fill="white"/>
<path d="M119.538 54.3903H121.316V56.4485C121.972 55.2302 123.189 54.2012 125.057 54.2012C127.58 54.2012 129.17 55.9812 129.17 58.7903V67.0285H127.297V59.2576C127.297 57.0103 126.268 55.7921 124.395 55.7921C122.522 55.7921 121.216 57.1938 121.216 59.3466V66.9284H119.438L119.532 54.3847L119.538 54.3903Z" fill="white"/>
<path d="M133.382 54.1071C133.755 54.1071 133.944 53.918 133.944 53.6399C133.944 53.3617 133.755 53.1726 133.382 53.1726H132.632V54.1071H133.382ZM132.071 52.7053H133.382C133.755 52.7053 134.038 52.7999 134.316 52.9835C134.505 53.1726 134.6 53.3562 134.6 53.6399C134.6 54.1071 134.316 54.3908 133.944 54.4854L134.694 55.609H134.038L133.288 54.5799H132.632V55.609H132.071V52.7053ZM135.717 54.2017C135.717 52.7999 134.594 51.6763 133.193 51.6763C131.793 51.6763 130.67 52.7999 130.67 54.2017C130.67 55.6035 131.793 56.7271 133.193 56.7271C134.594 56.7271 135.717 55.6035 135.717 54.2017ZM130.387 54.2017C130.387 52.6108 131.698 51.3926 133.193 51.3926C134.783 51.3926 136 52.6108 136 54.2017C136 55.7926 134.688 57.0108 133.193 57.0108C131.698 57.0108 130.387 55.7926 130.387 54.2017Z" fill="white"/>
</g>
<defs>
<clipPath id="clip0_2099_794">
<rect width="136" height="70.4" fill="white"/>
</clipPath>
</defs>
</svg>
