<svg width="32" height="62" viewBox="0 0 32 62" fill="none" xmlns="http://www.w3.org/2000/svg">
<g opacity="0.3">
<path d="M23.3351 17.7359C19.1448 13.8165 12.5842 14.039 8.66479 18.2294" stroke="#4197B4" stroke-width="1.5" stroke-miterlimit="10" stroke-linecap="round"/>
<path d="M26.3404 12.6475C20.6373 6.9444 11.3869 6.96462 5.65552 12.6961" stroke="#4197B4" stroke-width="1.5" stroke-miterlimit="10" stroke-linecap="round"/>
<path d="M30.3406 7.31679C22.4129 -0.606899 9.58691 -0.606899 1.65918 7.31679" stroke="#4197B4" stroke-width="1.5" stroke-miterlimit="10" stroke-linecap="round"/>
<path d="M21.7051 23.2568H10.2908C9.54244 23.2568 8.93579 23.8635 8.93579 24.6118V33.2555C8.93579 34.0038 9.54244 34.6105 10.2908 34.6105H21.7051C22.4534 34.6105 23.0601 34.0038 23.0601 33.2555V24.6118C23.0601 23.8635 22.4534 23.2568 21.7051 23.2568Z" fill="#F5F8FA" stroke="#1D2020" stroke-width="1.5" stroke-miterlimit="10"/>
<path d="M24.3585 31.2412H7.63742C6.31497 31.2412 5.24292 32.3133 5.24292 33.6357V58.0742C5.24292 59.3966 6.31497 60.4687 7.63742 60.4687H24.3585C25.6809 60.4687 26.753 59.3966 26.753 58.0742V33.6357C26.753 32.3133 25.6809 31.2412 24.3585 31.2412Z" fill="#F5F8FA" stroke="#1D2020" stroke-width="1.5" stroke-miterlimit="10"/>
<path d="M15.998 38.9062V45.8552L20.5767 42.5829L15.998 38.9062Z" stroke="#4197B4" stroke-width="1.5" stroke-miterlimit="10"/>
<path d="M15.998 45.8555V52.8084L20.5767 49.5322L15.998 45.8555Z" stroke="#4197B4" stroke-width="1.5" stroke-miterlimit="10"/>
<path d="M11.4233 49.1276L15.998 45.8554L11.4233 42.1787" stroke="#4197B4" stroke-width="1.5" stroke-miterlimit="10"/>
<path d="M13.7085 26.3428V28.9355" stroke="#1D2020" stroke-width="1.5" stroke-miterlimit="10"/>
<path d="M18.2871 26.3428V28.9355" stroke="#1D2020" stroke-width="1.5" stroke-miterlimit="10"/>
</g>
</svg>
